<svg width="2200" height="727" viewBox="0 0 2200 727" fill="none" xmlns="http://www.w3.org/2000/svg">
<path fill-rule="evenodd" clip-rule="evenodd" d="M889.545 63.8479C889.234 64.1589 888.996 94.4649 889.015 131.195L889.051 197.978L909.111 198.268C920.145 198.428 929.358 198.371 929.586 198.141C929.814 197.912 930.001 184.273 930.001 167.832C930.001 150.884 930.382 138.175 930.881 138.484C931.365 138.783 934.965 144.097 938.882 150.293C942.799 156.489 949.299 166.733 953.325 173.058L960.647 184.558H971.401H982.155L990.906 170.058C995.719 162.083 1002.43 150.833 1005.82 145.058L1011.98 134.558L1011.99 166.308L1012 198.058H1033.11C1051.19 198.058 1054.13 197.849 1053.65 196.599C1053.35 195.797 1053.02 166.885 1052.93 132.349C1052.84 97.8139 1052.55 68.1459 1052.29 66.4209L1051.81 63.2839L1033.47 63.3179C1023.39 63.3369 1014.75 63.6239 1014.26 63.9549C1013.78 64.2869 1006.17 76.7079 997.347 91.5579C988.527 106.408 979.07 122.216 976.33 126.687L971.348 134.817L965.815 125.687C954.707 107.36 930.672 68.485 928.797 65.812L926.87 63.0659L908.49 63.174C898.381 63.234 889.855 63.5369 889.545 63.8479Z" fill="#112654"/>
<path fill-rule="evenodd" clip-rule="evenodd" d="M1060 64.045C1060 64.515 1062.18 68.423 1064.85 72.729C1067.53 77.035 1078.15 94.733 1088.47 112.058C1098.78 129.383 1108.07 144.752 1109.11 146.212C1110.84 148.641 1111 150.954 1111 173.403C1111 186.898 1111.34 198.079 1111.75 198.249C1112.16 198.419 1122.29 198.428 1134.25 198.27L1156 197.982V173.581V149.18L1164.91 133.769C1169.81 125.293 1176.94 113.228 1180.75 106.958C1190.78 90.477 1206 64.346 1206 63.622C1206 63.281 1196.37 63.045 1184.59 63.098C1165.86 63.181 1163 63.403 1161.71 64.876C1160.9 65.801 1157.92 70.683 1155.1 75.725C1152.28 80.767 1146.44 90.724 1142.12 97.852L1134.28 110.811L1120.05 86.906L1105.82 63L1082.91 63.096C1070.31 63.148 1060 63.575 1060 64.045Z" fill="#112654"/>
<path fill-rule="evenodd" clip-rule="evenodd" d="M435.5 150.046C431.1 150.508 422.1 152.096 415.5 153.574C371.741 163.375 335.748 183.676 304.5 216.181C289.87 231.399 280.437 244.405 267.066 267.792C258.496 282.782 244.661 295.649 229.66 302.58C225.657 304.429 217.837 306.868 212.284 308C202.794 309.934 198.777 310.058 145.593 310.058H89V394.058V478.058H145.912C207.38 478.058 210.625 478.283 224.452 483.498C233.355 486.856 249.05 497.299 255.561 504.196C258.345 507.145 264.483 516.083 269.201 524.058C284.335 549.639 299.923 568.786 319 585.226C345.721 608.252 372.025 622.331 405.636 631.597C422.454 636.233 434.073 637.981 453 638.723C477.921 639.701 500.587 636.594 525 628.856C578.017 612.051 623.821 574.197 650.95 524.767L655.181 517.058H564.533C502.25 517.058 472.527 516.716 469.543 515.965C467.155 515.363 463.813 513.676 462.116 512.215C460.42 510.753 454.91 502.358 449.873 493.558C444.835 484.758 431.166 460.882 419.498 440.5C407.829 420.118 397.716 401.727 397.024 399.631C394.196 391.063 394.298 390.833 423.18 340.558C459.069 278.086 459.746 277.002 464.889 273.804L468.5 271.558L561 271.302C611.875 271.161 653.856 271.048 654.292 271.052C655.107 271.058 653.173 267.448 644.92 253.558C631.578 231.1 609.832 207.184 588.72 191.749C558.476 169.638 532.512 158.492 494.795 151.427C485.116 149.613 447.864 148.746 435.5 150.046Z" fill="#112654"/>
<path fill-rule="evenodd" clip-rule="evenodd" d="M1979 242.168C1948.92 244.503 1928.57 259.284 1917.12 287.125C1913.28 296.44 1911.58 303.339 1904.02 340.058C1900.69 356.283 1897.26 372.708 1896.41 376.558C1894.5 385.136 1883.08 440.833 1881.94 447.058C1881.49 449.533 1881.09 456.076 1881.06 461.598C1880.9 487.951 1891.86 503.95 1915.42 511.756C1922.94 514.247 1924.75 514.438 1941.5 514.496C1957.57 514.551 1960.36 514.306 1967.5 512.206C1991.55 505.138 2007.31 489.304 2015.44 464.058C2018.32 455.106 2025 427.794 2025 424.973C2025 424.443 2013.9 424.058 1998.6 424.058H1972.2L1970.52 431.808C1965.08 456.819 1962.48 463.79 1956.83 468.547C1950.57 473.818 1940.08 472.162 1935.79 465.225C1931.65 458.523 1932.67 451.059 1945.59 393.558C1946.33 390.258 1950.35 370.683 1954.53 350.058C1964.66 300.066 1966.37 294.455 1973.37 288.306C1976.64 285.436 1977.75 285.058 1982.9 285.058C1989.93 285.058 1992.98 287.049 1995.47 293.274C1997.47 298.27 1997.1 302.948 1993.43 319.442C1992.09 325.429 1991 330.716 1991 331.192C1991 331.668 2002.9 332.058 2017.43 332.058C2041.74 332.058 2043.91 331.917 2044.38 330.308C2048.72 315.675 2050.3 289.484 2047.51 278.751C2044.36 266.667 2038.6 257.957 2029.9 252.152C2017.92 244.149 1999.65 240.566 1979 242.168Z" fill="#112654"/>
<path fill-rule="evenodd" clip-rule="evenodd" d="M1358.53 247.308C1358.25 248.545 1356.65 256.308 1354.96 264.558C1349.63 290.739 1340.39 335.237 1331.49 377.558C1326.76 400.108 1319.57 434.758 1315.51 454.558C1311.46 474.358 1307.21 494.383 1306.08 499.058C1304.94 503.733 1304.01 508.346 1304.01 509.308C1304 510.955 1307.49 511.058 1363.38 511.058H1422.75L1428.25 489.095C1431.27 477.015 1433.5 466.89 1433.2 466.595C1432.91 466.299 1417.52 466.058 1399.01 466.058H1365.35L1366.64 460.308C1367.35 457.145 1369.96 444.658 1372.44 432.558C1374.92 420.458 1379.85 396.608 1383.41 379.558C1386.96 362.508 1391.23 341.583 1392.9 333.058C1394.56 324.533 1397.28 311.033 1398.94 303.058C1400.6 295.083 1403.94 279.016 1406.36 267.353C1408.78 255.69 1410.51 245.903 1410.21 245.603C1409.91 245.303 1398.28 245.058 1384.35 245.058H1359.04L1358.53 247.308Z" fill="#112654"/>
<path fill-rule="evenodd" clip-rule="evenodd" d="M1497.51 246.308C1497.1 247.485 1489.82 282.707 1477.52 343.058C1474.55 357.633 1469.37 382.355 1466.02 397.996C1462.67 413.637 1457.95 436.137 1455.53 447.996C1451.95 465.567 1444.94 498.253 1442.49 508.808L1441.96 511.058L1468.23 511.056L1494.5 511.054L1498.74 491.306C1501.07 480.444 1507.95 447.258 1514.03 417.558C1520.12 387.858 1527.3 352.983 1530 340.058C1543.29 276.427 1549 248.395 1549 246.805C1549 245.188 1547.1 245.058 1523.47 245.058C1503.94 245.058 1497.84 245.352 1497.51 246.308Z" fill="#112654"/>
<path fill-rule="evenodd" clip-rule="evenodd" d="M1749.62 245.868C1749.09 246.727 1743.26 274.427 1731.5 332.058C1727.85 349.933 1723.34 371.533 1721.48 380.058C1719.62 388.583 1716.53 403.208 1714.61 412.558C1704.63 461.266 1696.82 498.943 1696.06 502.058C1695.59 503.983 1694.92 506.795 1694.58 508.308L1693.96 511.058H1718.48C1731.97 511.058 1743 510.802 1743 510.489C1743 510.176 1746.8 490.939 1751.45 467.739C1762.93 410.395 1770.5 367.912 1773.74 342.558C1774.17 339.258 1774.96 336.558 1775.51 336.558C1776.13 336.558 1776.73 347.423 1777.11 365.558C1778.03 408.773 1779.94 477.444 1780.48 486.558C1780.74 490.958 1780.96 498.27 1780.98 502.808L1781 511.058H1809.93C1836.62 511.058 1838.91 510.922 1839.41 509.308C1840.33 506.326 1855.75 432.98 1873.1 349.058C1878.05 325.133 1884.58 293.633 1887.62 279.058C1890.65 264.483 1893.39 250.862 1893.7 248.79L1894.27 245.021L1870.46 245.29L1846.64 245.558L1845.86 248.504C1841.42 265.094 1819.49 380.971 1816.98 401.058C1816.32 406.283 1815.47 411.134 1815.09 411.838C1814.7 412.542 1813.8 390.717 1813.08 363.338C1812.36 335.959 1811.03 298.258 1810.14 279.558L1808.5 245.558L1779.32 245.293C1763.27 245.147 1749.9 245.406 1749.62 245.868Z" fill="#112654"/>
<path fill-rule="evenodd" clip-rule="evenodd" d="M2087 245.507C2087 246.827 2082.27 270.135 2078.37 288.058C2075.91 299.333 2072.13 316.996 2069.95 327.308C2067.78 337.621 2064.16 354.721 2061.92 365.308C2059.67 375.895 2055.44 396.258 2052.52 410.558C2049.59 424.858 2046.04 441.733 2044.62 448.058C2040.82 465.033 2032 508.116 2032 509.694C2032 510.831 2041.79 511.058 2090.76 511.058H2149.52L2152.15 501.808C2153.6 496.721 2156.58 486.787 2158.78 479.733C2161.81 470.001 2162.46 466.788 2161.48 466.411C2160.76 466.137 2151.7 466.059 2141.34 466.236C2130.98 466.413 2115.92 466.446 2107.89 466.308L2093.27 466.058L2095.21 456.308C2098.69 438.734 2106.94 399.624 2107.8 396.558L2108.65 393.558L2138.03 393.352L2167.42 393.146L2168.56 387.852C2169.18 384.94 2171.12 375.808 2172.87 367.558C2174.62 359.308 2176.3 351.77 2176.59 350.808C2177.1 349.168 2175.24 349.058 2147.05 349.058H2116.96L2117.49 346.808C2117.77 345.571 2119.12 339.777 2120.48 333.935C2121.83 328.092 2124.3 316.842 2125.96 308.935C2127.62 301.027 2129.21 293.545 2129.51 292.308L2130.04 290.058H2160.88H2191.72L2193.96 277.808C2195.19 271.071 2197.05 261.625 2198.1 256.819C2199.15 252.012 2200 247.399 2200 246.569C2200 245.239 2193.23 245.058 2143.5 245.058C2112.42 245.058 2087 245.26 2087 245.507Z" fill="#112654"/>
<path d="M1067.8 245.058C1098.73 245.058 1105.12 245.321 1114.25 246.967C1143.31 252.207 1157 268.873 1157.12 299.163C1157.17 311.217 1156.8 314.462 1153.31 332.559C1147.6 362.114 1140.08 377.67 1125.5 390.102C1111.49 402.042 1096.66 406.059 1066.56 406.059C1057.45 406.059 1049.99 406.396 1049.98 406.809C1049.98 407.225 1049.05 411.836 1047.93 417.059C1046.81 422.284 1044.16 435.334 1042.05 446.059C1039.93 456.784 1036.6 473.209 1034.64 482.559C1032.68 491.908 1030.58 502.146 1029.97 505.309L1028.86 511.059H1002.93C988.668 511.059 977 510.692 977 510.245C977 509.041 985.369 468.056 989.495 449.059C991.465 439.984 995.291 421.759 997.997 408.559C1004.79 375.43 1013.44 333.927 1016.55 319.559C1021.35 297.348 1027.08 269.638 1029.14 258.559C1030.27 252.51 1031.36 246.998 1031.57 246.309C1031.85 245.339 1039.97 245.058 1067.8 245.058ZM1098.02 288.068C1093.58 285.801 1077.76 284.025 1076.73 285.679C1076.43 286.173 1075.49 289.272 1074.64 292.567C1072.96 299.13 1060 361.542 1060 363.098C1060 364.406 1076.55 364.312 1081.36 362.977C1086.86 361.448 1093.25 355.122 1096.41 348.074C1099.68 340.783 1104.75 318.48 1105.62 307.502C1106.47 296.913 1104.25 291.247 1098.02 288.068Z" fill="#112654"/>
<path d="M1195.62 245.867C1196.5 244.44 1262.45 244.949 1273.16 246.466C1292.57 249.216 1304.5 255.574 1311.98 267.148C1316.82 274.629 1318.69 280.15 1320.08 291.058C1321.4 301.372 1320.7 311.315 1317.43 328.778C1314.03 346.931 1310.71 357.876 1305.23 369.058C1296.61 386.664 1280.59 399.329 1261.5 403.645C1257.02 404.658 1247.22 405.422 1234.25 405.769C1223.11 406.066 1214 406.469 1214 406.663C1214 406.873 1211.12 420.648 1207.61 437.287C1204.1 453.936 1199.29 477.346 1196.92 489.308L1192.62 511.058H1166.31C1151.84 511.058 1140 510.85 1140 510.595C1140 510.339 1141.38 503.703 1143.07 495.845C1144.76 487.987 1148.55 469.858 1151.5 455.558C1154.45 441.258 1158.49 421.908 1160.47 412.558C1162.45 403.208 1165.87 386.783 1168.06 376.058C1170.25 365.333 1175.17 341.933 1179 324.058C1182.83 306.183 1188.02 281.46 1190.54 269.117C1193.06 256.778 1195.34 246.317 1195.62 245.867ZM1260.42 287.487C1257.19 286.113 1243.62 284.829 1240.96 285.649C1239.87 285.987 1238.6 290.208 1236.56 300.341C1234.99 308.16 1231.94 322.658 1229.79 332.558C1227.64 342.458 1225.28 353.644 1224.54 357.415L1223.19 364.273L1233.85 363.866C1246.11 363.398 1250.74 361.611 1255.94 355.337C1261.96 348.076 1269.52 316.836 1268.85 302.001C1268.54 295.363 1268.12 293.811 1266 291.505C1264.62 290.018 1262.11 288.21 1260.42 287.487Z" fill="#112654"/>
<path d="M970 245.058V250.325C970 253.222 969.575 262.559 969.056 271.075C968.537 279.591 967.633 295.559 967.047 306.559C966.461 317.559 965.754 330.834 965.476 336.059C965.198 341.284 964.537 355.009 964.008 366.559C963.478 378.109 962.589 397.459 962.032 409.559C961.475 421.659 960.569 442.584 960.02 456.059C959.47 469.534 958.722 487.421 958.359 495.809L957.698 511.059H903.713L904.359 501.809C904.714 496.722 905.741 482.758 906.641 470.78C907.541 458.804 907.954 448.68 907.558 448.28C907.161 447.883 899.163 447.559 889.783 447.559H872.729L866.008 469.059C862.311 480.884 857.828 495.171 856.045 500.809L852.803 511.059H825.295C799.506 511.059 797.829 510.949 798.465 509.309C798.838 508.347 803.569 494.733 808.977 479.059C814.385 463.384 820.696 445.384 823.002 439.059C825.308 432.734 830.716 417.434 835.019 405.059C839.322 392.684 847.413 369.734 852.999 354.059C858.583 338.384 866.679 315.434 870.987 303.059C875.296 290.684 881.561 272.699 884.91 263.093C888.26 253.487 891 245.499 891 245.343C891.018 245.186 908.786 245.058 930.5 245.058H970ZM921.998 292.808C922.004 289.448 920.15 291.095 918.62 295.808C917.771 298.42 915.041 307.758 912.553 316.558C910.066 325.358 903.161 348.308 897.209 367.558L886.386 402.558L899.331 402.838C906.448 402.992 912.398 402.991 912.555 402.836C912.71 402.681 913.789 390.405 914.95 375.556C916.111 360.707 918.171 336.408 919.527 321.558C920.883 306.708 921.996 293.77 921.998 292.808Z" fill="#112654"/>
<path d="M1608.52 246.034C1609.44 244.548 1687.98 244.72 1688 246.208C1688 247.524 1685.54 292.806 1684.02 319.558C1683.45 329.458 1681.88 363.208 1680.52 394.558C1677.4 466.621 1676.13 493.538 1675.38 503.308L1674.79 511.058H1622L1622 506.808C1622 504.471 1622.92 491.533 1624.04 478.058C1625.15 464.584 1626.17 452.209 1626.28 450.558L1626.5 447.558H1590.8L1583.61 469.558C1579.65 481.658 1575.1 495.946 1573.49 501.308L1570.57 511.058H1543.28C1528.28 511.058 1516.02 510.946 1516.03 510.808C1516.04 510.67 1520.12 498.858 1525.08 484.558C1530.05 470.258 1538.33 446.408 1543.47 431.558C1548.61 416.708 1557.54 391.283 1563.3 375.058C1569.07 358.833 1576.59 337.458 1580 327.558C1583.42 317.658 1589.39 300.783 1593.27 290.058C1597.14 279.333 1602.02 265.26 1604.11 258.784C1606.2 252.308 1608.18 246.57 1608.52 246.034ZM1639.08 291.058C1638.01 291.058 1637.55 292.376 1631.53 313.058C1629.05 321.583 1624.08 338.008 1620.49 349.558C1616.9 361.108 1611.93 377.215 1609.44 385.35C1606.94 393.486 1604.65 400.799 1604.35 401.6C1603.87 402.833 1605.88 403.058 1617.32 403.058H1630.86L1631.39 397.808C1631.68 394.92 1632.41 385.358 1633.01 376.558C1634.49 354.822 1636.75 328.385 1638.53 311.851C1639.34 304.312 1640 296.55 1640 294.601C1640 292.652 1639.59 291.059 1639.08 291.058Z" fill="#112654"/>
<path fill-rule="evenodd" clip-rule="evenodd" d="M1451.79 645.009C1444.32 646.025 1435.65 650.336 1432.33 654.691C1428.91 659.175 1426.99 666.555 1427.93 671.632C1429.86 682.112 1436.38 686.692 1457.14 692.138C1471.37 695.871 1473.74 697.154 1474.57 701.565C1476.07 709.578 1469.48 713.492 1455.5 712.881C1447.47 712.53 1445.65 712.073 1439.15 708.772C1435.13 706.729 1431.63 705.058 1431.37 705.058C1431.1 705.058 1429.73 707.597 1428.31 710.7L1425.72 716.341L1428.11 718.188C1434.46 723.1 1450.33 726.637 1461.98 725.739C1480.19 724.335 1490 716 1490 701.928C1490 690.547 1482.6 684.505 1462.05 679.113C1449.56 675.839 1445.22 673.702 1443.01 669.758C1441.66 667.35 1441.66 666.766 1443.01 664.358C1447.51 656.313 1463.25 654.781 1476.35 661.113C1481.93 663.81 1482.51 663.634 1483.95 658.808C1484.64 656.47 1485.63 654.036 1486.15 653.398C1487.48 651.772 1483.84 649.413 1476.48 647.133C1469.04 644.823 1459.31 643.986 1451.79 645.009Z" fill="#112654"/>
<path fill-rule="evenodd" clip-rule="evenodd" d="M1922.25 645.574C1901.58 650.064 1888.69 667.487 1890.29 688.743C1892.21 714.031 1916.37 730.564 1943.2 724.949C1949.6 723.61 1958.81 718.911 1962.43 715.136L1965.07 712.376L1960.56 708.217C1958.07 705.93 1955.44 704.058 1954.7 704.058C1953.96 704.058 1952.3 705.172 1951.02 706.533C1945.05 712.897 1929.76 714.533 1920.5 709.8C1914.24 706.602 1910.71 702.913 1907.97 696.733C1897.91 673.977 1917.22 652.386 1941.73 658.986C1944.04 659.606 1947.96 661.669 1950.45 663.571L1954.98 667.028L1959.49 662.854C1961.97 660.558 1963.99 658.202 1963.97 657.619C1963.93 656.368 1956.92 651.018 1952.16 648.607C1948.13 646.566 1936.83 644.069 1932 644.155C1930.08 644.189 1925.69 644.828 1922.25 645.574Z" fill="#112654"/>
<path fill-rule="evenodd" clip-rule="evenodd" d="M2118 645.125C2104.54 647.418 2095.97 655.269 2095.2 666.033C2094.63 673.851 2095.35 676.334 2099.53 680.964C2103.71 685.591 2109.5 688.211 2123.89 691.984C2135.33 694.986 2138.75 696.407 2140.72 698.971C2142.56 701.371 2142.24 705.485 2139.98 708.351C2137 712.15 2132 713.393 2122.02 712.823C2114.81 712.412 2112.19 711.762 2106.43 708.944C2102.62 707.082 2099.17 705.412 2098.78 705.233C2098.38 705.055 2096.82 707.413 2095.32 710.474C2092.64 715.95 2092.62 716.063 2094.55 717.53C2108.85 728.448 2140.45 728.605 2150.69 717.81C2155.86 712.359 2157.26 708.581 2156.83 701.134C2156.56 696.23 2155.86 693.668 2154.14 691.254C2150.93 686.747 2141.85 682.435 2128.22 678.944C2115.64 675.722 2115.52 675.675 2112.25 672.735C2109.17 669.961 2109.23 664.735 2112.39 661.582C2117.75 656.217 2132.23 655.726 2142.77 660.552C2149.23 663.508 2149.6 663.326 2151.99 656.09C2153.22 652.362 2153.17 651.898 2151.42 650.552C2145.79 646.236 2128.23 643.383 2118 645.125Z" fill="#112654"/>
<path fill-rule="evenodd" clip-rule="evenodd" d="M1791.89 645.698C1791.01 645.946 1789.16 648.716 1787.77 651.854C1786.38 654.991 1780.64 668.133 1775 681.058C1769.36 693.983 1764.43 704.909 1764.04 705.337C1763.33 706.134 1762.71 704.797 1746.99 668.558C1741.98 657.008 1737.53 647.2 1737.1 646.763C1736.66 646.326 1732.92 646.101 1728.78 646.263L1721.26 646.558L1735.92 680.058C1743.98 698.483 1751.77 716.146 1753.23 719.308L1755.89 725.058H1763.26H1770.64L1777.27 709.808C1785.71 690.396 1803.27 651.257 1804.86 648.308C1806.03 646.137 1805.92 646.058 1801.79 646.044C1799.43 646.037 1796.6 645.854 1795.5 645.639C1794.4 645.424 1792.78 645.45 1791.89 645.698Z" fill="#112654"/>
<path fill-rule="evenodd" clip-rule="evenodd" d="M904 685.558V725.058H934H964V718.558V712.058H941.466H918.932L919.216 701.308L919.5 690.558L936.564 690.934C945.949 691.141 954.633 690.992 955.862 690.602C957.878 689.962 958.066 689.342 957.797 684.226L957.5 678.558L938.25 678.286L919 678.015V668.036V658.058H940.5H962V652.058V646.058H933H904V685.558Z" fill="#112654"/>
<path fill-rule="evenodd" clip-rule="evenodd" d="M1213 685.558V725.058H1220.5H1228V685.558V646.058H1220.5H1213V685.558Z" fill="#112654"/>
<path fill-rule="evenodd" clip-rule="evenodd" d="M1527 685.573V725.087L1557.25 724.823L1587.5 724.558V718.558V712.558L1564.72 712.289L1541.93 712.02L1542.22 701.289L1542.5 690.558L1561.5 690.549L1580.5 690.541L1580.8 684.299L1581.09 678.058H1561.55H1542V668.058V658.058H1564H1586V652.058V646.058H1556.5H1527V685.573Z" fill="#112654"/>
<path fill-rule="evenodd" clip-rule="evenodd" d="M1837 685.558V725.058H1844.5H1852V685.558V646.058H1844.5H1837V685.558Z" fill="#112654"/>
<path fill-rule="evenodd" clip-rule="evenodd" d="M2001 685.558V725.058H2031H2061V718.577V712.096L2038.25 711.827L2015.5 711.558V701.106V690.654L2034.75 690.779L2054 690.904V684.503V678.101L2034.75 677.83L2015.5 677.558V668.058V658.558L2037.25 658.288L2059 658.019V652.038V646.058H2030H2001V685.558Z" fill="#112654"/>
<path d="M811.75 645.836C828.605 645.495 842.288 646.411 847.178 648.207C853.299 650.455 859.756 655.661 862.118 660.253C863.634 663.202 864.477 666.993 864.793 672.288C865.205 679.181 864.963 680.613 862.563 685.52C860.088 690.579 858.688 691.964 850.28 697.68C848.823 698.67 849.453 699.965 855.625 708.68C859.472 714.112 863.637 720.02 864.878 721.808L867.136 725.058H850.261L842.459 713.058L834.656 701.058H824.396C815.201 701.058 814.072 701.255 813.533 702.954C813.202 703.997 813 705.235 813.084 705.704C813.168 706.175 813.184 710.72 813.118 715.808L813 725.058H798V646.114L811.75 645.836ZM813.5 688.558L825.538 688.837C836.512 689.092 837.97 688.91 842.038 686.783C852.274 681.429 852.761 666.389 842.888 660.558C840.064 658.89 837.293 658.5 826.224 658.209L812.947 657.86L813.5 688.558Z" fill="#112654"/>
<path d="M1009.74 645.849C1014.01 645.689 1024.48 645.798 1033 646.091C1050.44 646.691 1054.46 647.866 1061.81 654.509C1070.04 661.945 1072.18 676.688 1066.51 686.95C1060.93 697.049 1053.4 700.161 1032.59 700.974L1017.68 701.557L1017.47 712.557C1017.36 718.606 1017.21 723.912 1017.14 724.351C1017.06 724.787 1013.74 725.012 1009.75 724.851L1002.5 724.557L1002.24 685.349L1001.98 646.142L1009.74 645.849ZM1017.8 671.209C1017.35 691.03 1015.97 689.062 1030.32 689.036C1045.9 689.008 1050.06 687.442 1053.15 680.439C1056.71 672.391 1054.38 664.964 1046.89 660.557C1044.09 658.906 1041.28 658.497 1030.8 658.209L1018.11 657.86L1017.8 671.209Z" fill="#112654"/>
<path d="M1271.99 645.891C1272.54 645.708 1282.1 645.69 1293.24 645.851C1316.99 646.194 1321.52 647.127 1328.25 653.05C1334.73 658.753 1337.22 664.394 1337.22 673.37C1337.22 684.3 1334.11 690.356 1325.75 695.69C1323.69 697.006 1322 698.49 1322 698.987C1322 699.485 1325.83 705.393 1330.5 712.116C1335.17 718.835 1338.99 724.495 1339 724.699C1339 724.897 1335.41 725.058 1331.02 725.058H1323.04L1314.98 713.023L1306.91 700.989L1296.71 701.273L1286.5 701.558L1286.22 713.308L1285.94 725.058H1271V685.641C1271 660.503 1271.36 646.104 1271.99 645.891ZM1286 658.058V689.058L1298.75 689.054C1313.06 689.05 1316.19 687.985 1320.06 681.817C1323.18 676.846 1322.43 667.156 1318.61 663.17C1317.04 661.529 1313.9 659.767 1311.46 659.152C1309.07 658.55 1302.36 658.058 1296.56 658.058H1286Z" fill="#112654"/>
<path d="M1647.32 646.058C1672.78 646.058 1676.26 646.79 1684.05 653.797C1686.94 656.392 1690.12 660.325 1691.13 662.537C1693.2 667.091 1693.57 676.449 1691.93 682.381C1690.87 686.178 1683.99 694.099 1679.07 697.189L1676.63 698.716L1685.32 711.318C1690.09 718.249 1694 724.176 1694 724.489C1694 724.802 1690.46 725.059 1686.14 725.059H1678.27L1670.89 713.809C1666.83 707.622 1663.06 702.219 1662.51 701.805C1661.95 701.39 1657 701.165 1651.5 701.305L1641.5 701.559L1641.22 713.309L1640.94 725.059H1626V646.058H1647.32ZM1641 689.058H1653.85C1665.56 689.058 1667 688.856 1670.08 686.784C1671.93 685.534 1674.48 682.992 1675.73 681.136C1680.13 674.599 1677.82 664.556 1671 660.592C1668.07 658.888 1665.35 658.501 1654.25 658.21L1641 657.862V689.058Z" fill="#112654"/>
<path d="M1127.75 646.111C1128.71 645.535 1130.4 645.282 1131.5 645.548C1132.6 645.813 1135.67 646.037 1138.32 646.044L1143.13 646.058L1146.67 653.808C1148.62 658.071 1155.97 673.933 1163 689.058C1174.93 714.685 1179 723.754 1179 724.68C1179 724.888 1175.48 725.058 1171.18 725.058H1163.36L1160.01 717.308C1158.17 713.046 1156.23 708.988 1155.69 708.289C1154.95 707.32 1149.96 707.083 1134.66 707.289L1114.6 707.558L1107.29 724.558L1099.64 724.85C1095.32 725.015 1092 724.733 1092 724.199C1092 723.678 1094.44 717.922 1097.41 711.407C1100.39 704.889 1108.04 688.14 1114.41 674.184C1120.79 660.229 1126 648.439 1126 647.984C1126 647.529 1126.79 646.687 1127.75 646.111ZM1136 662.114C1136 660.167 1134.14 661.033 1133.44 663.308C1133.05 664.545 1130.1 671.752 1126.87 679.322C1123.64 686.89 1121 693.526 1121 694.072C1121 694.675 1126.63 695.058 1135.5 695.058C1143.47 695.058 1150 694.839 1150 694.572C1150 694.297 1146.85 687.126 1143 678.628C1139.15 670.126 1136 662.694 1136 662.114Z" fill="#112654"/>
<rect x="798" y="551" width="1360" height="54" fill="#E99D22"/>
<rect x="720" width="14" height="725" fill="#E99D22"/>
<path d="M0 346C0 326.118 16.1177 310 36 310H71V478H36C16.1178 478 0 461.882 0 442V346Z" fill="#EBA122"/>
<path d="M590.75 316.434L636.5 394.809L591.5 472.751L500.75 472.317L455 393.942L500 316L590.75 316.434ZM546.236 352.544C523.04 352.544 504.236 371.348 504.236 394.544C504.236 417.74 523.04 436.544 546.236 436.544C569.432 436.544 588.236 417.74 588.236 394.544C588.236 371.348 569.432 352.544 546.236 352.544Z" fill="#EC9B1B"/>
</svg>
